<svg xmlns="http://www.w3.org/2000/svg" width="464" height="393" fill="none"><circle cx="28.517" cy="221.01" r="14.259" fill="#46F7FD" transform="rotate(-180 28.517 221.01)"/><circle cx="28.517" cy="149.716" r="10.694" fill="#46F7FD" transform="rotate(-180 28.517 149.716)"/><circle cx="28.517" cy="78.423" r="8.912" fill="#46F7FD" transform="rotate(-180 28.517 78.423)"/><circle cx="28.518" cy="7.129" r="7.129" fill="#1E6DF6" transform="rotate(-180 28.518 7.13)"/><circle cx="99.811" cy="149.716" r="10.694" fill="#46F7FD" transform="rotate(-180 99.81 149.716)"/><circle cx="99.811" cy="78.423" r="7.129" fill="#1E6DF6" transform="rotate(-180 99.811 78.423)"/><circle cx="171.105" cy="363.597" r="14.259" fill="#46F7FD" transform="rotate(-180 171.105 363.597)"/><circle cx="171.105" cy="221.009" r="21.388" fill="#46F7FD" transform="rotate(-180 171.105 221.009)"/><circle cx="171.104" cy="221.01" r="10.694" fill="#1E6DF6" transform="rotate(-180 171.104 221.01)"/><circle cx="242.398" cy="363.597" r="10.694" fill="#46F7FD" transform="rotate(-180 242.398 363.597)"/><circle cx="313.691" cy="363.597" r="8.912" fill="#46F7FD" transform="rotate(-180 313.691 363.597)"/><circle cx="313.691" cy="292.304" r="10.694" fill="#1E6DF6" transform="rotate(-180 313.691 292.304)"/><circle cx="384.985" cy="363.597" r="8.912" fill="#46F7FD" transform="rotate(-180 384.985 363.597)"/><circle cx="456.278" cy="363.597" r="7.129" fill="#1E6DF6" transform="rotate(-180 456.278 363.597)"/><path fill="#46F7FD" d="M21.388 392.114C9.576 392.114 0 382.539 0 370.727v-78.424c0-15.75 12.768-28.518 28.518-28.518 11.79 0 21.91 7.157 26.252 17.363.98 2.304 3.116 4.026 5.62 4.026 2.611 0 4.817-1.857 5.656-4.329 3.1-9.138 9.806-16.611 18.423-20.726 4.558-2.176 8.212-6.378 8.213-11.429 0-4.501-3.033-8.327-6.5-11.197-4.74-3.923-7.76-9.85-7.76-16.483.001-11.812 9.576-21.388 21.389-21.388s21.387 9.576 21.387 21.388c0 6.633-3.019 12.56-7.759 16.483-3.467 2.87-6.498 6.696-6.499 11.196 0 5.052 3.654 9.253 8.212 11.43a35.8 35.8 0 0 1 13.694 11.505c2.608 3.657 6.545 6.421 11.037 6.421 4.034 0 7.64-2.278 10.396-5.224 5.204-5.56 12.609-9.036 20.825-9.036 9.364 0 17.673 4.513 22.873 11.483 3.89 5.215 9.294 9.907 15.8 9.907h2.368c6.043 0 11.144-4.217 15.525-8.38a21.3 21.3 0 0 1 14.727-5.88c11.813 0 21.389 9.576 21.389 21.389s-9.576 21.387-21.389 21.387a21.3 21.3 0 0 1-14.727-5.879c-4.381-4.163-9.482-8.379-15.524-8.379h-2.371c-6.505 0-11.909 4.691-15.799 9.906-5.199 6.969-13.508 11.481-22.872 11.481-8.215 0-15.62-3.474-20.824-9.034-2.757-2.946-6.362-5.224-10.396-5.224-4.493.001-8.429 2.765-11.038 6.422a35.74 35.74 0 0 1-17.577 13.085c-2.472.838-4.329 3.044-4.329 5.655 0 2.504 1.722 4.64 4.027 5.621 10.205 4.342 17.361 14.461 17.361 26.252 0 15.749-12.768 28.517-28.517 28.517z"/><circle cx="242.398" cy="292.303" r="7.129" fill="#1E6DF6" transform="rotate(-180 242.398 292.303)"/><circle cx="171.105" cy="292.304" r="14.259" fill="#1E6DF6" transform="rotate(-180 171.105 292.304)"/><circle cx="99.811" cy="292.303" r="21.388" fill="#1E6DF6" transform="rotate(-180 99.81 292.303)"/><circle cx="99.811" cy="221.01" r="7.129" fill="#1E6DF6" transform="rotate(-180 99.811 221.01)"/><circle cx="171.105" cy="363.597" r="7.129" fill="#1E6DF6" transform="rotate(-180 171.105 363.597)"/><circle cx="28.517" cy="292.304" r="14.259" fill="#1E6DF6" transform="rotate(-180 28.517 292.304)"/><circle cx="99.811" cy="363.597" r="10.694" fill="#1E6DF6" transform="rotate(-180 99.81 363.597)"/></svg>