<svg xmlns="http://www.w3.org/2000/svg" width="325" height="586" fill="none"><circle cx="28.518" cy="221.01" r="14.259" fill="#46F7FD" transform="rotate(180 28.518 221.01)"/><circle cx="28.518" cy="149.716" r="10.694" fill="#46F7FD" transform="rotate(180 28.518 149.716)"/><circle cx="28.518" cy="78.423" r="8.912" fill="#46F7FD" transform="rotate(180 28.518 78.423)"/><circle cx="28.518" cy="7.129" r="7.129" fill="#1E6DF6" transform="rotate(180 28.518 7.13)"/><circle cx="99.811" cy="149.716" r="10.694" fill="#46F7FD" transform="rotate(180 99.81 149.716)"/><circle cx="99.811" cy="78.423" r="7.129" fill="#1E6DF6" transform="rotate(180 99.811 78.423)"/><circle cx="171.105" cy="221.009" r="21.388" fill="#46F7FD" transform="rotate(180 171.105 221.009)"/><circle cx="171.105" cy="221.01" r="10.694" fill="#1E6DF6" transform="rotate(180 171.105 221.01)"/><circle cx="313.692" cy="292.304" r="10.694" fill="#1E6DF6" transform="rotate(180 313.692 292.304)"/><path fill="#46F7FD" d="M99.811 384.984c-11.812 0-21.388-9.576-21.388-21.388 0-6.633 3.02-12.559 7.759-16.482 3.467-2.869 6.5-6.696 6.5-11.197 0-5.051-3.655-9.252-8.212-11.429a35.8 35.8 0 0 1-12.529-9.961c-3.535-4.429-8.47-7.965-14.137-7.965-2.838 0-5.394 1.571-7.19 3.768-5.229 6.403-13.185 10.49-22.096 10.49C12.768 320.82 0 308.052 0 292.303c0-15.75 12.768-28.518 28.518-28.518 8.912 0 16.87 4.089 22.098 10.493 1.795 2.197 4.35 3.767 7.188 3.767 5.667 0 10.602-3.537 14.137-7.966a35.8 35.8 0 0 1 12.529-9.96c4.557-2.177 8.211-6.378 8.212-11.429 0-4.501-3.033-8.327-6.5-11.197-4.74-3.923-7.76-9.85-7.76-16.483.001-11.812 9.576-21.388 21.389-21.388s21.387 9.576 21.387 21.388c0 6.633-3.019 12.56-7.759 16.483-3.467 2.87-6.498 6.696-6.499 11.196 0 5.052 3.654 9.253 8.212 11.43a35.8 35.8 0 0 1 13.694 11.505c2.608 3.657 6.545 6.421 11.037 6.421 4.034 0 7.64-2.278 10.396-5.224 5.204-5.56 12.609-9.036 20.825-9.036 9.364 0 17.673 4.513 22.873 11.483 3.89 5.215 9.294 9.907 15.8 9.907h2.368c6.043 0 11.144-4.217 15.525-8.38a21.3 21.3 0 0 1 14.727-5.88c11.813 0 21.389 9.576 21.389 21.389s-9.576 21.387-21.389 21.387a21.3 21.3 0 0 1-14.727-5.879c-4.381-4.163-9.482-8.378-15.524-8.378h-2.371c-6.505 0-11.909 4.691-15.799 9.905-5.2 6.969-13.509 11.481-22.872 11.481-8.215 0-15.62-3.474-20.824-9.034-2.757-2.946-6.362-5.224-10.396-5.224-4.493.001-8.429 2.765-11.038 6.422a35.8 35.8 0 0 1-13.694 11.504c-4.557 2.177-8.211 6.378-8.212 11.429 0 4.501 3.032 8.328 6.499 11.197 4.74 3.923 7.76 9.849 7.76 16.482 0 11.812-9.575 21.388-21.388 21.388"/><circle cx="242.398" cy="292.303" r="7.129" fill="#1E6DF6" transform="rotate(180 242.398 292.303)"/><circle cx="171.106" cy="292.304" r="14.259" fill="#1E6DF6" transform="rotate(180 171.106 292.304)"/><circle cx="99.811" cy="292.303" r="21.388" fill="#1E6DF6" transform="rotate(180 99.811 292.303)"/><circle cx="99.811" cy="221.01" r="7.129" fill="#1E6DF6" transform="rotate(180 99.811 221.01)"/><circle cx="28.518" cy="292.304" r="14.259" fill="#1E6DF6" transform="rotate(180 28.518 292.304)"/><circle cx="7.129" cy="7.129" r="7.129" fill="#1E6DF6" transform="matrix(-1 0 0 1 35.648 570.984)"/><circle cx="8.912" cy="8.912" r="8.912" fill="#46F7FD" transform="matrix(-1 0 0 1 37.43 497.908)"/><circle cx="7.129" cy="7.129" r="7.129" fill="#1E6DF6" transform="matrix(-1 0 0 1 106.941 499.69)"/><circle cx="10.694" cy="10.694" r="10.694" fill="#46F7FD" transform="matrix(-1 0 0 1 39.212 424.833)"/><circle cx="10.694" cy="10.694" r="10.694" fill="#46F7FD" transform="matrix(-1 0 0 1 110.506 424.832)"/><circle cx="21.388" cy="21.388" r="21.388" fill="#46F7FD" transform="matrix(-1 0 0 1 192.493 342.845)"/><circle cx="14.259" cy="14.259" r="14.259" fill="#46F7FD" transform="matrix(-1 0 0 1 42.776 349.974)"/><circle cx="10.694" cy="10.694" r="10.694" fill="#1E6DF6" transform="matrix(-1 0 0 1 181.799 353.539)"/><circle cx="7.129" cy="7.129" r="7.129" fill="#1E6DF6" transform="matrix(-1 0 0 1 106.941 357.103)"/></svg>