<svg xmlns="http://www.w3.org/2000/svg" width="464" height="393" fill="none"><circle cx="14.259" cy="14.259" r="14.259" fill="#1E6DF6" transform="matrix(1 0 0 -1 420.632 235.268)"/><circle cx="10.694" cy="10.694" r="10.694" fill="#1E6DF6" transform="matrix(1 0 0 -1 424.196 160.41)"/><circle cx="8.912" cy="8.912" r="8.912" fill="#1E6DF6" transform="matrix(1 0 0 -1 425.979 87.335)"/><circle cx="7.129" cy="7.129" r="7.129" fill="#46F7FD" transform="matrix(1 0 0 -1 427.761 14.259)"/><circle cx="10.694" cy="10.694" r="10.694" fill="#1E6DF6" transform="matrix(1 0 0 -1 352.903 160.41)"/><circle cx="7.129" cy="7.129" r="7.129" fill="#46F7FD" transform="matrix(1 0 0 -1 356.467 85.552)"/><circle cx="14.259" cy="14.259" r="14.259" fill="#1E6DF6" transform="matrix(1 0 0 -1 278.044 377.855)"/><circle cx="21.388" cy="21.388" r="21.388" fill="#1E6DF6" transform="matrix(1 0 0 -1 270.915 242.398)"/><circle cx="10.694" cy="10.694" r="10.694" fill="#46F7FD" transform="matrix(1 0 0 -1 281.609 231.704)"/><circle cx="10.694" cy="10.694" r="10.694" fill="#1E6DF6" transform="matrix(1 0 0 -1 210.316 374.291)"/><circle cx="8.912" cy="8.912" r="8.912" fill="#1E6DF6" transform="matrix(1 0 0 -1 140.805 372.509)"/><circle cx="10.694" cy="10.694" r="10.694" fill="#46F7FD" transform="matrix(1 0 0 -1 139.022 302.998)"/><circle cx="8.912" cy="8.912" r="8.912" fill="#1E6DF6" transform="matrix(1 0 0 -1 69.511 372.509)"/><circle cx="7.129" cy="7.129" r="7.129" fill="#46F7FD" transform="matrix(1 0 0 -1 0 370.726)"/><path fill="#1E6DF6" d="M442.02 392.114c11.812 0 21.388-9.575 21.388-21.387v-78.423c0-15.75-12.768-28.518-28.518-28.518-11.791 0-21.91 7.156-26.252 17.362-.98 2.304-3.116 4.026-5.621 4.026-2.61 0-4.816-1.857-5.655-4.329-3.1-9.138-9.806-16.611-18.423-20.726-4.558-2.176-8.213-6.379-8.213-11.43 0-4.5 3.033-8.326 6.5-11.196 4.74-3.923 7.759-9.85 7.759-16.483 0-11.812-9.576-21.388-21.388-21.388s-21.388 9.576-21.389 21.388c.001 6.633 3.021 12.56 7.76 16.483 3.467 2.87 6.499 6.696 6.499 11.196 0 5.052-3.654 9.253-8.212 11.43a35.8 35.8 0 0 0-13.693 11.505c-2.609 3.657-6.546 6.421-11.038 6.421-4.034 0-7.639-2.278-10.396-5.224-5.203-5.56-12.608-9.035-20.825-9.035-9.363 0-17.672 4.513-22.871 11.483-3.89 5.214-9.295 9.906-15.801 9.906h-2.368c-6.043 0-11.145-4.217-15.525-8.38a21.3 21.3 0 0 0-14.728-5.88c-11.812 0-21.388 9.576-21.388 21.389s9.576 21.387 21.388 21.387a21.32 21.32 0 0 0 14.728-5.879c4.38-4.163 9.481-8.379 15.524-8.379h2.369c6.506 0 11.911 4.691 15.801 9.906 5.199 6.969 13.508 11.481 22.871 11.481 8.216 0 15.621-3.474 20.824-9.034 2.757-2.946 6.362-5.224 10.397-5.224 4.492.001 8.429 2.765 11.038 6.422a35.74 35.74 0 0 0 17.577 13.085c2.472.838 4.328 3.044 4.328 5.655 0 2.504-1.721 4.64-4.026 5.621-10.206 4.342-17.361 14.461-17.361 26.252 0 15.749 12.767 28.517 28.517 28.517z"/><circle cx="7.129" cy="7.129" r="7.129" fill="#46F7FD" transform="matrix(1 0 0 -1 213.88 299.433)"/><circle cx="14.259" cy="14.259" r="14.259" fill="#46F7FD" transform="matrix(1 0 0 -1 278.044 306.562)"/><circle cx="21.388" cy="21.388" r="21.388" fill="#46F7FD" transform="matrix(1 0 0 -1 342.209 313.691)"/><circle cx="7.129" cy="7.129" r="7.129" fill="#46F7FD" transform="matrix(1 0 0 -1 356.467 228.139)"/><circle cx="7.129" cy="7.129" r="7.129" fill="#46F7FD" transform="matrix(1 0 0 -1 285.174 370.726)"/><circle cx="14.259" cy="14.259" r="14.259" fill="#46F7FD" transform="matrix(1 0 0 -1 420.632 306.562)"/><circle cx="10.694" cy="10.694" r="10.694" fill="#46F7FD" transform="matrix(1 0 0 -1 352.903 374.291)"/></svg>